<svg width="489" height="161" viewBox="0 0 489 161" fill="none" xmlns="http://www.w3.org/2000/svg">
<g opacity="0.4">
<rect opacity="0.6" x="77.1313" y="102.211" width="333.391" height="58.2893" rx="14.5" fill="white" stroke="#E5E5E5"/>
<rect x="90.8608" y="114.754" width="72.3329" height="11.8579" rx="5.92893" fill="#DDB976" fill-opacity="0.2"/>
<rect x="313.788" y="114.754" width="65.2182" height="11.8579" rx="5.92893" fill="#DDB976" fill-opacity="0.2"/>
<rect x="384.936" y="114.754" width="11.8579" height="11.8579" rx="5.92893" fill="#DDB976" fill-opacity="0.2"/>
<rect x="169.123" y="114.754" width="45.0598" height="11.8579" rx="5.92893" fill="#DDB976" fill-opacity="0.2"/>
<rect x="90.8608" y="137.284" width="305.933" height="11.8579" rx="5.92893" fill="#DDB976" fill-opacity="0.3"/>
</g>
<g opacity="0.7">
<rect opacity="0.6" x="35.3325" y="54.8386" width="416.989" height="73.1116" rx="14.5" fill="white" stroke="#E5E5E5"/>
<rect x="52.6193" y="70.6431" width="90.4161" height="14.8223" rx="7.41116" fill="#DDB976" fill-opacity="0.2"/>
<rect x="331.279" y="70.6431" width="81.5227" height="14.8223" rx="7.41116" fill="#DDB976" fill-opacity="0.2"/>
<rect x="420.213" y="70.6431" width="14.8223" height="14.8223" rx="7.41116" fill="#DDB976" fill-opacity="0.2"/>
<rect x="150.447" y="70.6431" width="56.3248" height="14.8223" rx="7.41116" fill="#DDB976" fill-opacity="0.2"/>
<rect x="52.6193" y="98.8055" width="382.416" height="14.8223" rx="7.41116" fill="#DDB976" fill-opacity="0.3"/>
</g>
<rect x="0.5" y="0.5" width="487.937" height="85.6909" rx="14.5" fill="white" stroke="#E5E5E5"/>
<rect x="20.8058" y="19.0719" width="105.763" height="17.3382" rx="8.6691" fill="#DDB976" fill-opacity="0.2"/>
<rect x="346.764" y="19.0719" width="95.36" height="17.3382" rx="8.6691" fill="#DDB976" fill-opacity="0.2"/>
<rect x="450.793" y="19.0719" width="17.3382" height="17.3382" rx="8.6691" fill="#DDB976" fill-opacity="0.2"/>
<rect x="135.238" y="19.0719" width="65.8851" height="17.3382" rx="8.6691" fill="#DDB976" fill-opacity="0.2"/>
<rect x="20.8058" y="52.0146" width="447.325" height="17.3382" rx="8.6691" fill="#DDB976" fill-opacity="0.3"/>
</svg>
