<svg width="24" height="24" viewBox="0 0 24 24" fill="none" xmlns="http://www.w3.org/2000/svg">
<path fill-rule="evenodd" clip-rule="evenodd" d="M1.25 8C1.25 4.27208 4.27208 1.25 8 1.25H16C19.7279 1.25 22.75 4.27208 22.75 8V16C22.75 19.7279 19.7279 22.75 16 22.75H8C4.27208 22.75 1.25 19.7279 1.25 16V8ZM8 2.75C5.10051 2.75 2.75 5.10051 2.75 8V16C2.75 18.8995 5.10051 21.25 8 21.25H16C18.8995 21.25 21.25 18.8995 21.25 16V8C21.25 5.10051 18.8995 2.75 16 2.75H8Z" fill="#616161"/>
<path fill-rule="evenodd" clip-rule="evenodd" d="M12 7.00732C12.4142 7.00732 12.75 7.34311 12.75 7.75732L12.75 16.2426C12.75 16.6568 12.4142 16.9926 12 16.9926C11.5857 16.9926 11.25 16.6568 11.25 16.2426L11.25 7.75731C11.25 7.3431 11.5858 7.00731 12 7.00732Z" fill="#616161"/>
<path fill-rule="evenodd" clip-rule="evenodd" d="M16.9999 12C16.9999 12.4142 16.6641 12.75 16.2499 12.75L7.76464 12.75C7.35043 12.75 7.01464 12.4142 7.01464 12C7.01464 11.5857 7.35043 11.25 7.76465 11.25L16.2499 11.25C16.6641 11.25 16.9999 11.5858 16.9999 12Z" fill="#616161"/>
</svg>
