<svg width="26" height="26" viewBox="0 0 26 26" fill="none" xmlns="http://www.w3.org/2000/svg">
<path fill-rule="evenodd" clip-rule="evenodd" d="M3.31562 14.0255C3.57367 13.2514 4.29814 12.7292 5.11416 12.7292H10.0525C10.8685 12.7292 11.593 13.2514 11.8511 14.0255L13.2955 18.3588C13.7047 19.5864 12.791 20.8542 11.497 20.8542H3.66972C2.3757 20.8542 1.46197 19.5864 1.87117 18.3588L3.31562 14.0255ZM5.11416 14.3542C4.99759 14.3542 4.89409 14.4288 4.85723 14.5394L3.41278 18.8727C3.35432 19.0481 3.48486 19.2292 3.66972 19.2292H11.497C11.6818 19.2292 11.8124 19.0481 11.7539 18.8727L10.3095 14.5394C10.2726 14.4288 10.1691 14.3542 10.0525 14.3542H5.11416Z" fill="#232323"/>
<path fill-rule="evenodd" clip-rule="evenodd" d="M14.1489 14.0255C14.407 13.2514 15.1314 12.7292 15.9475 12.7292H20.8858C21.7019 12.7292 22.4263 13.2514 22.6844 14.0255L24.1288 18.3588C24.538 19.5864 23.6243 20.8542 22.3303 20.8542H14.503C13.209 20.8542 12.2953 19.5864 12.7045 18.3588L14.1489 14.0255ZM15.9475 14.3542C15.8309 14.3542 15.7274 14.4288 15.6905 14.5394L14.2461 18.8727C14.1876 19.0481 14.3182 19.2292 14.503 19.2292H22.3303C22.5151 19.2292 22.6457 19.0481 22.5872 18.8727L21.1428 14.5394C21.1059 14.4288 21.0024 14.3542 20.8858 14.3542H15.9475Z" fill="#232323"/>
<path fill-rule="evenodd" clip-rule="evenodd" d="M8.73227 5.90051C8.99032 5.12636 9.71479 4.60419 10.5308 4.60419H15.4692C16.2852 4.60419 17.0097 5.12636 17.2677 5.90051L18.7122 10.2338C19.1214 11.4614 18.2076 12.7292 16.9136 12.7292H9.08637C7.79236 12.7292 6.87862 11.4615 7.28783 10.2338L8.73227 5.90051ZM10.5308 6.22919C10.4142 6.22919 10.3107 6.30378 10.2739 6.41438L8.82944 10.7477C8.77098 10.9231 8.90151 11.1042 9.08637 11.1042H16.9136C17.0985 11.1042 17.229 10.9231 17.1706 10.7477L15.7261 6.41438C15.6892 6.30378 15.5857 6.22919 15.4692 6.22919H10.5308Z" fill="#232323"/>
</svg>
