<svg width="24" height="24" viewBox="0 0 24 24" fill="none" xmlns="http://www.w3.org/2000/svg">
<path d="M3.77207 13.1838C3.90819 12.7754 4.29033 12.5 4.72076 12.5H9.27924C9.70967 12.5 10.0918 12.7754 10.2279 13.1838L11.5613 17.1838C11.7771 17.8313 11.2951 18.5 10.6126 18.5H3.38742C2.70487 18.5 2.2229 17.8313 2.43874 17.1838L3.77207 13.1838Z" stroke="#966D22" stroke-width="1.5"/>
<path d="M13.7721 13.1838C13.9082 12.7754 14.2903 12.5 14.7208 12.5H19.2792C19.7097 12.5 20.0918 12.7754 20.2279 13.1838L21.5613 17.1838C21.7771 17.8313 21.2951 18.5 20.6126 18.5H13.3874C12.7049 18.5 12.2229 17.8313 12.4387 17.1838L13.7721 13.1838Z" stroke="#966D22" stroke-width="1.5"/>
<path d="M8.77207 5.68377C8.90819 5.27543 9.29033 5 9.72076 5H14.2792C14.7097 5 15.0918 5.27543 15.2279 5.68377L16.5613 9.68377C16.7771 10.3313 16.2951 11 15.6126 11H8.38742C7.70487 11 7.2229 10.3313 7.43874 9.68377L8.77207 5.68377Z" stroke="#966D22" stroke-width="1.5"/>
</svg>
