<svg width="23" height="22" viewBox="0 0 23 22" fill="none" xmlns="http://www.w3.org/2000/svg">
<path fill-rule="evenodd" clip-rule="evenodd" d="M2.06122 7.33334C2.06122 4.9286 4.01065 2.97917 6.41539 2.97917L17.4154 2.97917C19.8201 2.97917 21.7696 4.9286 21.7696 7.33334L21.7696 16.5C21.7696 18.9047 19.8201 20.8542 17.4154 20.8542L6.41539 20.8542C4.01065 20.8542 2.06122 18.9047 2.06122 16.5L2.06122 7.33334ZM6.41539 4.35417C4.77004 4.35417 3.43622 5.68799 3.43622 7.33334L3.43622 16.5C3.43622 18.1454 4.77004 19.4792 6.41539 19.4792L17.4154 19.4792C19.0607 19.4792 20.3946 18.1454 20.3946 16.5L20.3946 7.33334C20.3946 5.68799 19.0607 4.35417 17.4154 4.35417L6.41539 4.35417Z" fill="#232323"/>
<rect x="7.33209" y="8.70833" width="1.83333" height="1.83333" rx="0.5" fill="#232323"/>
<rect x="10.9987" y="8.70833" width="1.83333" height="1.83333" rx="0.5" fill="#232323"/>
<rect x="14.6654" y="8.70833" width="1.83333" height="1.83333" rx="0.5" fill="#232323"/>
<rect x="7.33209" y="11.4583" width="1.83333" height="1.83333" rx="0.5" fill="#232323"/>
<rect x="7.33209" y="14.2083" width="1.83333" height="1.83333" rx="0.5" fill="#232323"/>
<rect x="10.9987" y="11.4583" width="1.83333" height="1.83333" rx="0.5" fill="#232323"/>
<rect x="10.9987" y="14.2083" width="1.83333" height="1.83333" rx="0.5" fill="#232323"/>
<rect x="14.6654" y="11.4583" width="1.83333" height="1.83333" rx="0.5" fill="#232323"/>
<rect x="14.6654" y="14.2083" width="1.83333" height="1.83333" rx="0.5" fill="#232323"/>
<path fill-rule="evenodd" clip-rule="evenodd" d="M8.24872 1.14583C8.62841 1.14583 8.93622 1.45363 8.93622 1.83333L8.93622 5.04166C8.93622 5.42136 8.62841 5.72916 8.24872 5.72916C7.86902 5.72916 7.56122 5.42136 7.56122 5.04166L7.56122 1.83333C7.56122 1.45363 7.86902 1.14583 8.24872 1.14583Z" fill="#232323"/>
<path fill-rule="evenodd" clip-rule="evenodd" d="M15.5821 1.14583C15.9618 1.14583 16.2696 1.45363 16.2696 1.83333L16.2696 5.04166C16.2696 5.42136 15.9618 5.72916 15.5821 5.72916C15.2024 5.72916 14.8946 5.42136 14.8946 5.04166L14.8946 1.83333C14.8946 1.45363 15.2024 1.14583 15.5821 1.14583Z" fill="#232323"/>
</svg>
