<svg width="21" height="21" viewBox="0 0 21 21" fill="none" xmlns="http://www.w3.org/2000/svg">
<path d="M10.6014 3.38166C10.6014 4.85073 8.38966 6.04164 5.6614 6.04164C2.93313 6.04164 0.721436 4.85073 0.721436 3.38166C0.721436 1.91259 2.93313 0.72168 5.6614 0.72168C8.38966 0.72168 10.6014 1.91259 10.6014 3.38166Z" stroke="#966D22" stroke-width="1.44299"/>
<path d="M5.6614 10.6013C8.38966 10.6013 10.6014 9.41038 10.6014 7.94131V3.38135C10.6014 4.85041 8.38966 6.04133 5.6614 6.04133C2.93313 6.04133 0.721436 4.85041 0.721436 3.38135V7.94131C0.721436 9.41038 2.93313 10.6013 5.6614 10.6013Z" stroke="#966D22" stroke-width="1.44299"/>
<path d="M5.6614 15.1614C8.38966 15.1614 10.6014 13.9704 10.6014 12.5014V7.94141C10.6014 9.41047 8.38966 10.6014 5.6614 10.6014C2.93313 10.6014 0.721436 9.41047 0.721436 7.94141V12.5014C0.721436 13.9704 2.93313 15.1614 5.6614 15.1614Z" stroke="#966D22" stroke-width="1.44299"/>
<path d="M5.6614 19.7214C8.38966 19.7214 10.6014 18.5305 10.6014 17.0614V12.5015C10.6014 13.9705 8.38966 15.1614 5.6614 15.1614C2.93313 15.1614 0.721436 13.9705 0.721436 12.5015V17.0614C0.721436 18.5305 2.93313 19.7214 5.6614 19.7214Z" stroke="#966D22" stroke-width="1.44299"/>
<circle cx="15.2944" cy="15.4469" r="4.275" stroke="#966D22" stroke-width="1.5"/>
</svg>
