<svg width="24" height="24" viewBox="0 0 24 24" fill="none" xmlns="http://www.w3.org/2000/svg">
<path fill-rule="evenodd" clip-rule="evenodd" d="M3.90545 3.35101C3.1084 3.78019 2.8501 4.24742 2.8501 4.57531C2.8501 4.90321 3.1084 5.37044 3.90545 5.79962C4.67196 6.21235 5.78236 6.49062 7.04996 6.49062C8.31755 6.49062 9.42796 6.21235 10.1945 5.79962C10.9915 5.37044 11.2498 4.90321 11.2498 4.57531C11.2498 4.24742 10.9915 3.78019 10.1945 3.35101C9.42796 2.93828 8.31755 2.66 7.04996 2.66C5.78236 2.66 4.67196 2.93828 3.90545 3.35101ZM3.1943 2.0303C4.2193 1.47838 5.58382 1.16 7.04996 1.16C8.5161 1.16 9.88062 1.47838 10.9056 2.0303C11.9001 2.56577 12.7498 3.4312 12.7498 4.57531C12.7498 5.71943 11.9001 6.58485 10.9056 7.12032C9.88062 7.67224 8.5161 7.99062 7.04996 7.99062C5.58382 7.99062 4.2193 7.67224 3.1943 7.12032C2.19986 6.58485 1.3501 5.71943 1.3501 4.57531C1.3501 3.4312 2.19986 2.56577 3.1943 2.0303Z" fill="#616161"/>
<path fill-rule="evenodd" clip-rule="evenodd" d="M3.90545 5.79907C4.67196 6.21181 5.78236 6.49008 7.04996 6.49008C8.31755 6.49008 9.42796 6.21181 10.1945 5.79907C10.9915 5.36989 11.2498 4.90266 11.2498 4.57477H12.7498V9.14387C12.7498 10.288 11.9001 11.1534 10.9056 11.6889C9.88062 12.2408 8.5161 12.5592 7.04996 12.5592C5.58382 12.5592 4.2193 12.2408 3.1943 11.6889C2.19986 11.1534 1.3501 10.288 1.3501 9.14387V4.57477H2.8501C2.8501 4.90266 3.1084 5.36989 3.90545 5.79907ZM2.8501 6.91693V9.14387C2.8501 9.47176 3.1084 9.93899 3.90545 10.3682C4.67196 10.7809 5.78236 11.0592 7.04996 11.0592C8.31755 11.0592 9.42796 10.7809 10.1945 10.3682C10.9915 9.93899 11.2498 9.47176 11.2498 9.14387V6.91693C11.1379 6.98907 11.0227 7.05671 10.9056 7.11978C9.88062 7.6717 8.5161 7.99008 7.04996 7.99008C5.58382 7.99008 4.2193 7.6717 3.1943 7.11978C3.07718 7.05671 2.96206 6.98907 2.8501 6.91693Z" fill="#616161"/>
<path fill-rule="evenodd" clip-rule="evenodd" d="M3.90545 10.3685C4.67196 10.7812 5.78236 11.0595 7.04996 11.0595C8.31755 11.0595 9.42796 10.7812 10.1945 10.3685C10.9915 9.93932 11.2498 9.47209 11.2498 9.1442H12.7498V13.7133C12.7498 14.8574 11.9001 15.7228 10.9056 16.2583C9.88062 16.8102 8.5161 17.1286 7.04996 17.1286C5.58382 17.1286 4.2193 16.8102 3.1943 16.2583C2.19986 15.7228 1.3501 14.8574 1.3501 13.7133V9.1442H2.8501C2.8501 9.47209 3.1084 9.93932 3.90545 10.3685ZM2.8501 11.4864V13.7133C2.8501 14.0412 3.1084 14.5084 3.90545 14.9376C4.67196 15.3503 5.78236 15.6286 7.04996 15.6286C8.31755 15.6286 9.42796 15.3503 10.1945 14.9376C10.9915 14.5084 11.2498 14.0412 11.2498 13.7133V11.4864C11.1379 11.5585 11.0227 11.6261 10.9056 11.6892C9.88062 12.2411 8.5161 12.5595 7.04996 12.5595C5.58382 12.5595 4.2193 12.2411 3.1943 11.6892C3.07718 11.6261 2.96206 11.5585 2.8501 11.4864Z" fill="#616161"/>
<path fill-rule="evenodd" clip-rule="evenodd" d="M3.90545 14.9379C4.67196 15.3506 5.78236 15.6289 7.04996 15.6289C8.31755 15.6289 9.42796 15.3506 10.1945 14.9379C10.9915 14.5087 11.2498 14.0415 11.2498 13.7136H12.7498V18.2827C12.7498 19.4268 11.9001 20.2922 10.9056 20.8277C9.88062 21.3796 8.5161 21.698 7.04996 21.698C5.58382 21.698 4.2193 21.3796 3.1943 20.8277C2.19986 20.2922 1.3501 19.4268 1.3501 18.2827V13.7136H2.8501C2.8501 14.0415 3.1084 14.5087 3.90545 14.9379ZM2.8501 16.0558V18.2827C2.8501 18.6106 3.1084 19.0778 3.90545 19.507C4.67196 19.9197 5.78236 20.198 7.04996 20.198C8.31755 20.198 9.42796 19.9197 10.1945 19.507C10.9915 19.0778 11.2498 18.6106 11.2498 18.2827V16.0558C11.1379 16.1279 11.0227 16.1955 10.9056 16.2586C9.88062 16.8105 8.5161 17.1289 7.04996 17.1289C5.58382 17.1289 4.2193 16.8105 3.1943 16.2586C3.07718 16.1955 2.96206 16.1279 2.8501 16.0558Z" fill="#616161"/>
<path fill-rule="evenodd" clip-rule="evenodd" d="M13.7958 9.06243C12.9988 9.49162 12.7405 9.95885 12.7405 10.2867C12.7405 10.6146 12.9988 11.0819 13.7958 11.511C14.5623 11.9238 15.6727 12.202 16.9403 12.202C18.2079 12.202 19.3183 11.9238 20.0848 11.511C20.8819 11.0819 21.1402 10.6146 21.1402 10.2867C21.1402 9.95885 20.8819 9.49162 20.0848 9.06243C19.3183 8.6497 18.2079 8.37143 16.9403 8.37143C15.6727 8.37143 14.5623 8.6497 13.7958 9.06243ZM13.0847 7.74173C14.1097 7.18981 15.4742 6.87143 16.9403 6.87143C18.4065 6.87143 19.771 7.18981 20.796 7.74173C21.7904 8.2772 22.6402 9.14262 22.6402 10.2867C22.6402 11.4309 21.7904 12.2963 20.796 12.8318C19.771 13.3837 18.4065 13.702 16.9403 13.702C15.4742 13.702 14.1097 13.3837 13.0847 12.8318C12.0902 12.2963 11.2405 11.4309 11.2405 10.2867C11.2405 9.14262 12.0902 8.2772 13.0847 7.74173Z" fill="#616161"/>
<path fill-rule="evenodd" clip-rule="evenodd" d="M13.7958 11.5105C14.5623 11.9232 15.6727 12.2015 16.9403 12.2015C18.2079 12.2015 19.3183 11.9232 20.0848 11.5105C20.8819 11.0813 21.1402 10.6141 21.1402 10.2862H22.6402V14.8553C22.6402 15.9994 21.7904 16.8648 20.796 17.4003C19.771 17.9522 18.4065 18.2706 16.9403 18.2706C15.4742 18.2706 14.1097 17.9522 13.0847 17.4003C12.0902 16.8648 11.2405 15.9994 11.2405 14.8553V10.2862H12.7405C12.7405 10.6141 12.9988 11.0813 13.7958 11.5105ZM12.7405 12.6284V14.8553C12.7405 15.1832 12.9988 15.6504 13.7958 16.0796C14.5623 16.4923 15.6727 16.7706 16.9403 16.7706C18.2079 16.7706 19.3183 16.4923 20.0848 16.0796C20.8819 15.6504 21.1402 15.1832 21.1402 14.8553V12.6284C21.0282 12.7005 20.9131 12.7681 20.796 12.8312C19.771 13.3831 18.4065 13.7015 16.9403 13.7015C15.4742 13.7015 14.1097 13.3831 13.0847 12.8312C12.9676 12.7681 12.8524 12.7005 12.7405 12.6284Z" fill="#616161"/>
<path fill-rule="evenodd" clip-rule="evenodd" d="M13.7958 16.0799C14.5623 16.4927 15.6727 16.7709 16.9403 16.7709C18.2079 16.7709 19.3183 16.4927 20.0848 16.0799C20.8819 15.6507 21.1402 15.1835 21.1402 14.8556H22.6402V19.4247C22.6402 20.5688 21.7904 21.4343 20.796 21.9697C19.771 22.5217 18.4065 22.84 16.9403 22.84C15.4742 22.84 14.1097 22.5217 13.0847 21.9697C12.0902 21.4343 11.2405 20.5688 11.2405 19.4247V14.8556H12.7405C12.7405 15.1835 12.9988 15.6507 13.7958 16.0799ZM12.7405 17.1978V19.4247C12.7405 19.7526 12.9988 20.2198 13.7958 20.649C14.5623 21.0618 15.6727 21.34 16.9403 21.34C18.2079 21.34 19.3183 21.0618 20.0848 20.649C20.8819 20.2198 21.1402 19.7526 21.1402 19.4247V17.1978C21.0282 17.2699 20.9131 17.3376 20.796 17.4006C19.771 17.9526 18.4065 18.2709 16.9403 18.2709C15.4742 18.2709 14.1097 17.9526 13.0847 17.4006C12.9676 17.3376 12.8524 17.2699 12.7405 17.1978Z" fill="#616161"/>
</svg>
