<svg width="24" height="24" viewBox="0 0 24 24" fill="none" xmlns="http://www.w3.org/2000/svg">
<path fill-rule="evenodd" clip-rule="evenodd" d="M1.23608 11.1035C1.23608 5.36145 6.07442 0.763794 11.9861 0.763793C14.2425 0.763793 16.332 1.42282 18.0729 2.58622C20.8864 4.43202 22.7361 7.55138 22.7361 11.1035C22.7361 14.2062 21.3192 16.9816 19.0723 18.8611C19.1675 18.9783 19.269 19.1077 19.3709 19.2449C19.5792 19.5252 19.8006 19.853 19.973 20.1858C20.1352 20.4989 20.3017 20.9047 20.3017 21.3174C20.3017 22.0128 19.8871 22.5508 19.4095 22.861C18.9305 23.172 18.3029 23.318 17.6891 23.1896C16.4766 22.9359 14.9798 22.4798 13.8033 22.0942C13.2114 21.9002 12.6935 21.7217 12.3235 21.5917C12.1384 21.5267 11.9901 21.4737 11.8877 21.4368L11.8521 21.4239C8.48258 21.3844 5.4687 19.8567 3.55054 17.4736C2.10176 15.7239 1.23608 13.5058 1.23608 11.1035ZM12.2446 19.9707L12.2537 19.974L12.2825 19.9845L12.3958 20.0255C12.4949 20.0612 12.6396 20.1129 12.8208 20.1765C13.1832 20.3039 13.6908 20.4789 14.2705 20.6688C15.4373 21.0513 16.8689 21.4855 17.9962 21.7213C18.1925 21.7624 18.4194 21.7153 18.5925 21.6029C18.7669 21.4897 18.8017 21.374 18.8017 21.3174C18.8017 21.2727 18.7725 21.1294 18.6412 20.8759C18.52 20.642 18.35 20.3859 18.1669 20.1395C17.9858 19.8958 17.803 19.6763 17.6646 19.517C17.5957 19.4378 17.5387 19.3744 17.4995 19.3314C17.4799 19.31 17.4648 19.2937 17.455 19.2831L17.4443 19.2717L17.4421 19.2694C17.2926 19.1118 17.2187 18.8972 17.2396 18.6809C17.2605 18.4647 17.3741 18.2682 17.551 18.1422C19.8029 16.5385 21.2361 13.9797 21.2361 11.1035C21.2361 8.08955 19.6689 5.42615 17.2476 3.83878L17.2419 3.83502C15.747 2.83535 13.9466 2.26379 11.9861 2.26379C6.8432 2.26379 2.73608 6.2483 2.73608 11.1035C2.73608 13.1397 3.46896 15.0247 4.70895 16.5207L4.71611 16.5293C6.37274 18.5898 9.01167 19.9247 11.9861 19.9247C12.0743 19.9247 12.1618 19.9403 12.2446 19.9707C12.2446 19.9707 12.2446 19.9707 12.2446 19.9707Z" fill="#616161"/>
</svg>
