<svg width="25" height="24" viewBox="0 0 25 24" fill="none" xmlns="http://www.w3.org/2000/svg">
<path fill-rule="evenodd" clip-rule="evenodd" d="M2.75 7C2.75 3.82436 5.32436 1.25 8.5 1.25H16.5C19.6756 1.25 22.25 3.82436 22.25 7V17C22.25 20.1756 19.6756 22.75 16.5 22.75H8.5C5.32436 22.75 2.75 20.1756 2.75 17V7ZM8.5 2.75C6.15279 2.75 4.25 4.65279 4.25 7V17C4.25 19.3472 6.15279 21.25 8.5 21.25H16.5C18.8472 21.25 20.75 19.3472 20.75 17V7C20.75 4.65279 18.8472 2.75 16.5 2.75H8.5Z" fill="#616161"/>
<path fill-rule="evenodd" clip-rule="evenodd" d="M7.75 8.19995C7.75 7.78574 8.08579 7.44995 8.5 7.44995H16.5C16.9142 7.44995 17.25 7.78574 17.25 8.19995C17.25 8.61416 16.9142 8.94995 16.5 8.94995H8.5C8.08579 8.94995 7.75 8.61416 7.75 8.19995Z" fill="#616161"/>
<path fill-rule="evenodd" clip-rule="evenodd" d="M7.75 12.2C7.75 11.7857 8.08579 11.45 8.5 11.45H16.5C16.9142 11.45 17.25 11.7857 17.25 12.2C17.25 12.6142 16.9142 12.95 16.5 12.95H8.5C8.08579 12.95 7.75 12.6142 7.75 12.2Z" fill="#616161"/>
<path fill-rule="evenodd" clip-rule="evenodd" d="M8.75 16.2C8.75 15.7857 9.08579 15.45 9.5 15.45H15.5C15.9142 15.45 16.25 15.7857 16.25 16.2C16.25 16.6142 15.9142 16.95 15.5 16.95H9.5C9.08579 16.95 8.75 16.6142 8.75 16.2Z" fill="#616161"/>
</svg>
