<svg width="25" height="24" viewBox="0 0 25 24" fill="none" xmlns="http://www.w3.org/2000/svg">
<path fill-rule="evenodd" clip-rule="evenodd" d="M11.8754 9.23999C11.5283 9.23999 11.1754 9.55438 11.1754 10.02C11.1754 10.3726 11.2511 10.4997 11.289 10.548C11.334 10.6053 11.424 10.6767 11.6648 10.7627L14.6769 11.8134C15.0293 11.9388 15.432 12.1357 15.7328 12.5209C16.0402 12.9146 16.1654 13.4057 16.1654 13.97C16.1654 15.1977 15.2152 16.25 13.9654 16.25H12.0854C10.7201 16.25 9.66541 15.1024 9.66541 13.75C9.66541 13.3358 10.0012 13 10.4154 13C10.8296 13 11.1654 13.3358 11.1654 13.75C11.1654 14.3375 11.6107 14.75 12.0854 14.75H13.9654C14.3156 14.75 14.6654 14.4423 14.6654 13.97C14.6654 13.6243 14.5906 13.4954 14.5505 13.4441C14.504 13.3845 14.4121 13.3116 14.1761 13.2273L11.1639 12.1766C10.8162 12.0528 10.4117 11.8595 10.1093 11.4745C9.79975 11.0803 9.67542 10.5874 9.67542 10.02C9.67542 8.8056 10.6224 7.73999 11.8754 7.73999H13.7554C15.1207 7.73999 16.1754 8.88754 16.1754 10.24C16.1754 10.6542 15.8396 10.99 15.4254 10.99C15.0112 10.99 14.6754 10.6542 14.6754 10.24C14.6754 9.65244 14.2301 9.23999 13.7554 9.23999H11.8754Z" fill="#232323"/>
<path fill-rule="evenodd" clip-rule="evenodd" d="M12.9154 6.75C13.3296 6.75 13.6654 7.08579 13.6654 7.5V16.5C13.6654 16.9142 13.3296 17.25 12.9154 17.25C12.5012 17.25 12.1654 16.9142 12.1654 16.5V7.5C12.1654 7.08579 12.5012 6.75 12.9154 6.75Z" fill="#232323"/>
<path fill-rule="evenodd" clip-rule="evenodd" d="M2.16541 7C2.16541 3.82436 4.73977 1.25 7.91541 1.25H17.9154C21.091 1.25 23.6654 3.82436 23.6654 7V17C23.6654 20.1756 21.091 22.75 17.9154 22.75H7.91541C4.73977 22.75 2.16541 20.1756 2.16541 17V7ZM7.91541 2.75C5.5682 2.75 3.66541 4.65279 3.66541 7V17C3.66541 19.3472 5.5682 21.25 7.91541 21.25H17.9154C20.2626 21.25 22.1654 19.3472 22.1654 17V7C22.1654 4.65279 20.2626 2.75 17.9154 2.75H7.91541Z" fill="#232323"/>
</svg>
