<svg width="12" height="16" viewBox="0 0 12 16" fill="none" xmlns="http://www.w3.org/2000/svg">
<path fill-rule="evenodd" clip-rule="evenodd" d="M6 15.54C6.19891 15.54 6.38968 15.461 6.53033 15.3204L11.5303 10.3204C11.8232 10.0275 11.8232 9.5526 11.5303 9.25971C11.2374 8.96682 10.7626 8.96682 10.4697 9.25971L6.75 12.9794L6.75 1.21861C6.75 0.804398 6.41421 0.468612 6 0.468612C5.58579 0.468612 5.25 0.804398 5.25 1.21861L5.25 12.9794L1.53033 9.25971C1.23744 8.96682 0.762563 8.96682 0.46967 9.25971C0.176777 9.5526 0.176777 10.0275 0.46967 10.3204L5.46967 15.3204C5.61032 15.461 5.80109 15.54 6 15.54Z" fill="black"/>
</svg>
