<svg width="25" height="24" viewBox="0 0 25 24" fill="none" xmlns="http://www.w3.org/2000/svg">
<path fill-rule="evenodd" clip-rule="evenodd" d="M8.33521 17.5C8.33521 17.0858 7.9949 16.75 7.57511 16.75H2.5078C2.08801 16.75 1.7477 17.0858 1.7477 17.5C1.7477 17.9142 2.08801 18.25 2.5078 18.25H7.57511C7.9949 18.25 8.33521 17.9142 8.33521 17.5Z" fill="black"/>
<path fill-rule="evenodd" clip-rule="evenodd" d="M16.9496 6.5C16.9496 6.08579 17.2899 5.75 17.7097 5.75H22.777C23.1968 5.75 23.5371 6.08579 23.5371 6.5C23.5371 6.91421 23.1968 7.25 22.777 7.25H17.7097C17.2899 7.25 16.9496 6.91421 16.9496 6.5Z" fill="black"/>
<path fill-rule="evenodd" clip-rule="evenodd" d="M23.5371 17.5C23.5371 17.0858 23.1968 16.75 22.777 16.75H13.6559C13.2361 16.75 12.8958 17.0858 12.8958 17.5C12.8958 17.9142 13.2361 18.25 13.6559 18.25H22.777C23.1968 18.25 23.5371 17.9142 23.5371 17.5Z" fill="black"/>
<path fill-rule="evenodd" clip-rule="evenodd" d="M1.74768 6.5C1.74768 6.08579 2.08799 5.75 2.50778 5.75H11.6289C12.0487 5.75 12.389 6.08579 12.389 6.5C12.389 6.91421 12.0487 7.25 11.6289 7.25H2.50778C2.08799 7.25 1.74768 6.91421 1.74768 6.5Z" fill="black"/>
<path fill-rule="evenodd" clip-rule="evenodd" d="M10.6155 15.15C11.8748 15.15 12.8958 16.1574 12.8958 17.4C12.8958 18.6427 11.8748 19.65 10.6155 19.65C9.3561 19.65 8.33519 18.6427 8.33519 17.4C8.33519 16.1574 9.3561 15.15 10.6155 15.15ZM14.416 17.4C14.416 15.329 12.7144 13.65 10.6155 13.65C8.51653 13.65 6.81499 15.329 6.81499 17.4C6.81499 19.4711 8.51653 21.15 10.6155 21.15C12.7144 21.15 14.416 19.4711 14.416 17.4Z" fill="black"/>
<path fill-rule="evenodd" clip-rule="evenodd" d="M14.6693 4.15002C13.4099 4.15002 12.389 5.15738 12.389 6.40002C12.389 7.64267 13.4099 8.65002 14.6693 8.65002C15.9287 8.65002 16.9496 7.64267 16.9496 6.40002C16.9496 5.15738 15.9287 4.15002 14.6693 4.15002ZM10.8688 6.40002C10.8688 4.32896 12.5704 2.65002 14.6693 2.65002C16.7683 2.65002 18.4698 4.32896 18.4698 6.40002C18.4698 8.47109 16.7683 10.15 14.6693 10.15C12.5704 10.15 10.8688 8.47109 10.8688 6.40002Z" fill="black"/>
</svg>
