<svg width="21" height="15" viewBox="0 0 21 15" fill="none" xmlns="http://www.w3.org/2000/svg">
<path d="M2.13603 8.93377C2.27214 8.52543 2.65428 8.25 3.08471 8.25H7.64319C8.07362 8.25 8.45576 8.52543 8.59188 8.93377L9.92521 12.9338C10.1411 13.5813 9.65908 14.25 8.97653 14.25H1.75138C1.06882 14.25 0.58685 13.5813 0.802694 12.9338L2.13603 8.93377Z" stroke="#DAB059" stroke-width="1.5"/>
<path d="M12.136 8.93377C12.2721 8.52543 12.6543 8.25 13.0847 8.25H17.6432C18.0736 8.25 18.4558 8.52543 18.5919 8.93377L19.9252 12.9338C20.1411 13.5813 19.6591 14.25 18.9765 14.25H11.7514C11.0688 14.25 10.5868 13.5813 10.8027 12.9338L12.136 8.93377Z" stroke="#DAB059" stroke-width="1.5"/>
<path d="M7.13603 1.43377C7.27214 1.02543 7.65428 0.75 8.08471 0.75H12.6432C13.0736 0.75 13.4558 1.02543 13.5919 1.43377L14.9252 5.43377C15.1411 6.0813 14.6591 6.75 13.9765 6.75H6.75138C6.06882 6.75 5.58685 6.0813 5.80269 5.43377L7.13603 1.43377Z" stroke="#DAB059" stroke-width="1.5"/>
</svg>
