<svg width="21" height="22" viewBox="0 0 21 22" fill="none" xmlns="http://www.w3.org/2000/svg">
<path fill-rule="evenodd" clip-rule="evenodd" d="M8.14165 1.12613C9.49233 -0.0553897 11.5088 -0.0553874 12.8594 1.12613L19.2209 6.69086C20.206 7.55261 20.7711 8.79772 20.7711 10.1066V18.1672C20.7711 20.1459 19.167 21.75 17.1883 21.75H3.81276C1.83406 21.75 0.230011 20.1459 0.230011 18.1672V10.1066C0.230011 8.79772 0.795106 7.55261 1.78023 6.69086L8.14165 1.12613ZM11.9159 2.20477C11.1055 1.49586 9.89561 1.49586 9.08521 2.20477L2.72378 7.7695C2.04975 8.35912 1.66311 9.21104 1.66311 10.1066V18.1672C1.66311 19.3545 2.62554 20.3169 3.81276 20.3169H17.1883C18.3756 20.3169 19.338 19.3545 19.338 18.1672V10.1066C19.338 9.21104 18.9513 8.35912 18.2773 7.76951L11.9159 2.20477Z" fill="#616161"/>
<path fill-rule="evenodd" clip-rule="evenodd" d="M7.75003 15.8636C7.75003 15.4494 8.08582 15.1136 8.50003 15.1136H12.5C12.9142 15.1136 13.25 15.4494 13.25 15.8636C13.25 16.2779 12.9142 16.6136 12.5 16.6136H8.50003C8.08582 16.6136 7.75003 16.2779 7.75003 15.8636Z" fill="#616161"/>
</svg>
