<svg width="24" height="24" viewBox="0 0 24 24" fill="none" xmlns="http://www.w3.org/2000/svg">
<path fill-rule="evenodd" clip-rule="evenodd" d="M21.1278 6.18272C21.1276 6.18332 21.1275 6.18392 21.1273 6.18453L17.013 19.3941C16.2487 21.8391 12.8232 21.8799 12.0108 19.4469L12.01 19.4443L10.7875 15.8277C10.3768 14.5746 9.39515 13.6266 8.17816 13.2212C8.17775 13.2211 8.17735 13.221 8.17694 13.2208L4.55221 11.9998C2.12266 11.1856 2.16644 7.74528 4.58179 6.98644C4.58215 6.98632 4.58252 6.98621 4.58289 6.98609L17.8396 2.87828L17.8434 2.87709C19.8553 2.24193 21.755 4.12582 21.1278 6.18272ZM17.3938 1.44605C20.5863 0.43985 23.5345 3.43998 22.5618 6.62293L18.4449 19.8409C17.2516 23.6581 11.8683 23.7518 10.5886 19.9235C10.5884 19.923 10.5882 19.9225 10.5881 19.922L9.36534 16.3046L9.36293 16.2973C9.10562 15.5096 8.48677 14.9048 7.70334 14.6441L7.70072 14.6432L4.07556 13.4221C4.07563 13.4221 4.07549 13.4221 4.07556 13.4221C0.276533 12.1487 0.321192 6.75107 4.13385 5.55487L17.3918 1.44668C17.3925 1.44647 17.3931 1.44626 17.3938 1.44605Z" fill="#616161"/>
</svg>
