<svg width="24" height="16" viewBox="0 0 24 16" fill="none" xmlns="http://www.w3.org/2000/svg">
<path fill-rule="evenodd" clip-rule="evenodd" d="M0.165405 3.18966C0.165405 1.56613 1.39662 0.25 2.91541 0.25H20.9154C22.4342 0.25 23.6654 1.56613 23.6654 3.18966V12.8103C23.6654 14.4339 22.4342 15.75 20.9154 15.75H2.9154C1.39662 15.75 0.165405 14.4339 0.165405 12.8103V3.18966ZM2.91541 1.85345C2.22505 1.85345 1.66541 2.45169 1.66541 3.18966V12.8103C1.66541 13.5483 2.22505 14.1466 2.9154 14.1466H20.9154C21.6058 14.1466 22.1654 13.5483 22.1654 12.8103V3.18966C22.1654 2.45169 21.6058 1.85345 20.9154 1.85345H2.91541Z" fill="#232323"/>
<path fill-rule="evenodd" clip-rule="evenodd" d="M16.1654 3.5C16.1654 3.08579 16.5012 2.75 16.9154 2.75H17.4154C19.2103 2.75 20.6654 4.20507 20.6654 6C20.6654 6.41421 20.3296 6.75 19.9154 6.75C19.5012 6.75 19.1654 6.41421 19.1654 6C19.1654 5.0335 18.3819 4.25 17.4154 4.25H16.9154C16.5012 4.25 16.1654 3.91421 16.1654 3.5Z" fill="#232323"/>
<path fill-rule="evenodd" clip-rule="evenodd" d="M16.1654 12.5C16.1654 12.9142 16.5012 13.25 16.9154 13.25H17.4154C19.2103 13.25 20.6654 11.7949 20.6654 10C20.6654 9.58579 20.3296 9.25 19.9154 9.25C19.5012 9.25 19.1654 9.58579 19.1654 10C19.1654 10.9665 18.3819 11.75 17.4154 11.75H16.9154C16.5012 11.75 16.1654 12.0858 16.1654 12.5Z" fill="#232323"/>
<path fill-rule="evenodd" clip-rule="evenodd" d="M7.66541 3.5C7.66541 3.08579 7.32962 2.75 6.91541 2.75H6.41541C4.62048 2.75 3.16541 4.20507 3.16541 6C3.16541 6.41421 3.50119 6.75 3.91541 6.75C4.32962 6.75 4.66541 6.41421 4.66541 6C4.66541 5.0335 5.44891 4.25 6.41541 4.25H6.91541C7.32962 4.25 7.66541 3.91421 7.66541 3.5Z" fill="#232323"/>
<path fill-rule="evenodd" clip-rule="evenodd" d="M7.66541 12.5C7.66541 12.9142 7.32962 13.25 6.91541 13.25H6.41541C4.62048 13.25 3.16541 11.7949 3.16541 10C3.16541 9.58579 3.50119 9.25 3.91541 9.25C4.32962 9.25 4.66541 9.58579 4.66541 10C4.66541 10.9665 5.44891 11.75 6.41541 11.75H6.91541C7.32962 11.75 7.66541 12.0858 7.66541 12.5Z" fill="#232323"/>
<path fill-rule="evenodd" clip-rule="evenodd" d="M11.9154 6.2C10.9213 6.2 10.1154 7.00589 10.1154 8C10.1154 8.99411 10.9213 9.8 11.9154 9.8C12.9095 9.8 13.7154 8.99411 13.7154 8C13.7154 7.00589 12.9095 6.2 11.9154 6.2ZM8.91541 8C8.91541 6.34315 10.2586 5 11.9154 5C13.5723 5 14.9154 6.34315 14.9154 8C14.9154 9.65685 13.5723 11 11.9154 11C10.2586 11 8.91541 9.65685 8.91541 8Z" fill="#232323"/>
</svg>
