<svg width="25" height="24" viewBox="0 0 25 24" fill="none" xmlns="http://www.w3.org/2000/svg">
<path fill-rule="evenodd" clip-rule="evenodd" d="M1.16541 7.18966C1.16541 5.56613 2.39662 4.25 3.91541 4.25H21.9154C23.4342 4.25 24.6654 5.56613 24.6654 7.18966V16.8103C24.6654 18.4339 23.4342 19.75 21.9154 19.75H3.9154C2.39662 19.75 1.16541 18.4339 1.16541 16.8103V7.18966ZM3.91541 5.85345C3.22505 5.85345 2.66541 6.45169 2.66541 7.18966V16.8103C2.66541 17.5483 3.22505 18.1466 3.9154 18.1466H21.9154C22.6058 18.1466 23.1654 17.5483 23.1654 16.8103V7.18966C23.1654 6.45169 22.6058 5.85345 21.9154 5.85345H3.91541Z" fill="#232323"/>
<path fill-rule="evenodd" clip-rule="evenodd" d="M17.1654 7.5C17.1654 7.08579 17.5012 6.75 17.9154 6.75H18.4154C20.2103 6.75 21.6654 8.20507 21.6654 10C21.6654 10.4142 21.3296 10.75 20.9154 10.75C20.5012 10.75 20.1654 10.4142 20.1654 10C20.1654 9.0335 19.3819 8.25 18.4154 8.25H17.9154C17.5012 8.25 17.1654 7.91421 17.1654 7.5Z" fill="#232323"/>
<path fill-rule="evenodd" clip-rule="evenodd" d="M17.1654 16.5C17.1654 16.9142 17.5012 17.25 17.9154 17.25H18.4154C20.2103 17.25 21.6654 15.7949 21.6654 14C21.6654 13.5858 21.3296 13.25 20.9154 13.25C20.5012 13.25 20.1654 13.5858 20.1654 14C20.1654 14.9665 19.3819 15.75 18.4154 15.75H17.9154C17.5012 15.75 17.1654 16.0858 17.1654 16.5Z" fill="#232323"/>
<path fill-rule="evenodd" clip-rule="evenodd" d="M8.66541 7.5C8.66541 7.08579 8.32962 6.75 7.91541 6.75H7.41541C5.62048 6.75 4.16541 8.20507 4.16541 10C4.16541 10.4142 4.50119 10.75 4.91541 10.75C5.32962 10.75 5.66541 10.4142 5.66541 10C5.66541 9.0335 6.44891 8.25 7.41541 8.25H7.91541C8.32962 8.25 8.66541 7.91421 8.66541 7.5Z" fill="#232323"/>
<path fill-rule="evenodd" clip-rule="evenodd" d="M8.66541 16.5C8.66541 16.9142 8.32962 17.25 7.91541 17.25H7.41541C5.62048 17.25 4.16541 15.7949 4.16541 14C4.16541 13.5858 4.50119 13.25 4.91541 13.25C5.32962 13.25 5.66541 13.5858 5.66541 14C5.66541 14.9665 6.44891 15.75 7.41541 15.75H7.91541C8.32962 15.75 8.66541 16.0858 8.66541 16.5Z" fill="#232323"/>
<path fill-rule="evenodd" clip-rule="evenodd" d="M12.9154 10.2C11.9213 10.2 11.1154 11.0059 11.1154 12C11.1154 12.9941 11.9213 13.8 12.9154 13.8C13.9095 13.8 14.7154 12.9941 14.7154 12C14.7154 11.0059 13.9095 10.2 12.9154 10.2ZM9.91541 12C9.91541 10.3431 11.2586 9 12.9154 9C14.5723 9 15.9154 10.3431 15.9154 12C15.9154 13.6569 14.5723 15 12.9154 15C11.2586 15 9.91541 13.6569 9.91541 12Z" fill="#232323"/>
</svg>
