<svg width="30" height="30" viewBox="0 0 30 30" fill="none" xmlns="http://www.w3.org/2000/svg">
<path fill-rule="evenodd" clip-rule="evenodd" d="M11.0922 23.3666C11.61 23.3666 12.0297 23.7863 12.0297 24.3041C12.0297 24.5206 12.0846 24.7443 12.2033 24.9651C12.3229 25.1874 12.5079 25.4071 12.7625 25.6032C13.0172 25.7994 13.3316 25.9639 13.6918 26.0788C14.0517 26.1936 14.443 26.2542 14.8417 26.2542C15.2404 26.2542 15.6317 26.1936 15.9916 26.0788C16.3518 25.9639 16.6662 25.7994 16.9209 25.6032C17.1755 25.4071 17.3605 25.1874 17.4801 24.9651C17.5988 24.7443 17.6537 24.5206 17.6537 24.3041C17.6537 23.7863 18.0734 23.3666 18.5912 23.3666C19.1089 23.3666 19.5287 23.7863 19.5287 24.3041C19.5287 24.8459 19.3895 25.3733 19.1314 25.8532C18.8741 26.3315 18.5068 26.7485 18.065 27.0887C17.6234 27.4288 17.1111 27.6897 16.5615 27.8651C16.0116 28.0405 15.4277 28.1292 14.8417 28.1292C14.2557 28.1292 13.6718 28.0405 13.1219 27.8651C12.5723 27.6897 12.06 27.4288 11.6184 27.0887C11.1766 26.7485 10.8092 26.3315 10.552 25.8532C10.2939 25.3733 10.1547 24.8459 10.1547 24.3041C10.1547 23.7863 10.5745 23.3666 11.0922 23.3666Z" fill="#616161"/>
<path fill-rule="evenodd" clip-rule="evenodd" d="M10.3621 2.96223C13.1844 1.55771 16.4917 1.50993 19.3535 2.83233L19.6093 2.95051C22.608 4.33618 24.5279 7.33836 24.5279 10.6417L24.5279 12.28C24.5279 13.5969 24.8149 14.8979 25.3689 16.0926L25.6997 16.806C27.2193 20.0827 25.2403 23.9127 21.6886 24.5692L21.5182 23.6473L21.6886 24.5692L21.4884 24.6062C17.0944 25.4184 12.5889 25.4184 8.19491 24.6062C4.59537 23.9409 2.69105 19.9586 4.43288 16.739L4.71588 16.216C5.41448 14.9247 5.78031 13.4797 5.78031 12.0116L5.78031 10.36C5.78031 7.2245 7.55495 4.35915 10.3621 2.96223ZM18.567 4.5344C16.2214 3.45052 13.5107 3.48969 11.1974 4.64086C9.02726 5.72081 7.65531 7.93598 7.65531 10.36L7.65531 12.0116C7.65531 13.7913 7.21185 15.5429 6.365 17.1082L6.082 17.6313C4.94592 19.7311 6.18798 22.3285 8.5357 22.7625C12.7044 23.533 16.9789 23.533 21.1476 22.7625L21.3478 22.7255C23.6951 22.2916 25.003 19.7604 23.9987 17.5948L23.6679 16.8814C22.9993 15.4396 22.6529 13.8693 22.6529 12.28L22.6529 10.6417C22.6529 8.0694 21.1579 5.7316 18.8228 4.65258L18.567 4.5344Z" fill="#616161"/>
<path fill-rule="evenodd" clip-rule="evenodd" d="M10.934 18.1243C10.934 17.6066 11.3537 17.1868 11.8715 17.1868L18.1215 17.1868C18.6392 17.1868 19.059 17.6066 19.059 18.1243C19.059 18.6421 18.6392 19.0618 18.1215 19.0618L11.8715 19.0618C11.3537 19.0618 10.934 18.6421 10.934 18.1243Z" fill="#616161"/>
</svg>
