<svg width="100" height="100" viewBox="0 0 100 100" fill="none" xmlns="http://www.w3.org/2000/svg">
<g opacity="0.25">
<path d="M8.30084 36.459C8.30084 20.926 20.8929 8.33409 36.4258 8.33398H63.5421C66.2599 8.334 68.8871 8.72111 71.3731 9.44043C66.0376 11.6427 62.2823 16.8956 62.2823 23.0264C62.2825 31.1405 68.8605 37.7188 76.9747 37.7188C83.1053 37.7187 88.3574 33.9625 90.5596 28.627C91.279 31.1132 91.6671 33.741 91.6671 36.459V63.5742C91.6671 79.1072 79.075 91.6991 63.5421 91.6992H36.4258C20.8929 91.6991 8.30084 79.1072 8.30084 63.5742V36.459Z" fill="#BFBFBF"/>
<path fill-rule="evenodd" clip-rule="evenodd" d="M8.30103 55.209L27.051 55.209C30.6576 55.209 34.0537 56.907 36.2177 59.7923L40.5927 65.6257C41.5763 66.9371 43.12 67.709 44.7594 67.709L55.176 67.709C56.8154 67.709 58.3591 66.9371 59.3427 65.6257L63.7177 59.7923C65.8816 56.9071 69.2778 55.209 72.8844 55.209L91.6552 55.209L91.6552 61.459L72.8844 61.459C71.245 61.459 69.7013 62.2308 68.7177 63.5423L64.3427 69.3757C62.1787 72.2609 58.7826 73.959 55.176 73.959L44.7594 73.959C41.1528 73.959 37.7566 72.2609 35.5927 69.3757L31.2177 63.5423C30.2341 62.2308 28.6904 61.459 27.051 61.459L8.30102 61.459L8.30103 55.209Z" fill="black"/>
<circle cx="76.9744" cy="23.0264" r="11.5674" fill="black"/>
</g>
</svg>
