<svg width="35" height="30" viewBox="0 0 35 30" fill="none" xmlns="http://www.w3.org/2000/svg">
<path fill-rule="evenodd" clip-rule="evenodd" d="M17.5 3.4375C14.4797 3.4375 12.0313 5.53617 12.0313 8.125C12.0313 10.7138 14.4797 12.8125 17.5 12.8125C20.5203 12.8125 22.9688 10.7138 22.9688 8.125C22.9688 5.53617 20.5203 3.4375 17.5 3.4375ZM9.84375 8.125C9.84375 4.50063 13.2716 1.5625 17.5 1.5625C21.7284 1.5625 25.1563 4.50063 25.1563 8.125C25.1563 11.7494 21.7284 14.6875 17.5 14.6875C13.2716 14.6875 9.84375 11.7494 9.84375 8.125Z" fill="#616161"/>
<path fill-rule="evenodd" clip-rule="evenodd" d="M6.19792 23.2143C6.19792 19.5406 9.67238 16.5625 13.9583 16.5625H21.0417C25.3276 16.5625 28.8021 19.5406 28.8021 23.2143C28.8021 26.099 26.0738 28.4375 22.7083 28.4375H12.2917C8.92619 28.4375 6.19792 26.099 6.19792 23.2143ZM13.9583 18.4375C10.8805 18.4375 8.38542 20.5761 8.38542 23.2143C8.38542 25.0635 10.1343 26.5625 12.2917 26.5625H22.7083C24.8657 26.5625 26.6146 25.0635 26.6146 23.2143C26.6146 20.5761 24.1195 18.4375 21.0417 18.4375H13.9583Z" fill="#616161"/>
</svg>
