<svg width="25" height="24" viewBox="0 0 25 24" fill="none" xmlns="http://www.w3.org/2000/svg">
<path fill-rule="evenodd" clip-rule="evenodd" d="M14.9193 1.90955C16.1497 1.29433 17.5432 2.38232 17.2447 3.72524L16.6475 6.41271L15.1832 6.08731L15.7805 3.39985C15.7884 3.36414 15.7839 3.3411 15.7775 3.32447C15.77 3.30474 15.7551 3.28325 15.7322 3.2654C15.7093 3.24755 15.6849 3.23833 15.6639 3.23577C15.6462 3.23361 15.6228 3.23484 15.5901 3.2512L14.9502 3.57115C13.6934 4.19951 12.2534 4.35759 10.8903 4.01681C10.4915 3.91713 10.1344 4.28639 10.2473 4.68159L10.6365 6.04397L9.19425 6.45605L8.80499 5.09367C8.37492 3.58841 9.73531 2.18191 11.2541 2.5616C12.2698 2.81553 13.3429 2.69774 14.2793 2.22951L14.9193 1.90955Z" fill="#232323"/>
<path fill-rule="evenodd" clip-rule="evenodd" d="M5.56512 7.62982C5.56512 6.45339 6.51882 5.49969 7.69525 5.49969H18.1092C19.2856 5.49969 20.2393 6.45339 20.2393 7.62982C20.2393 8.80626 19.2856 9.75995 18.1092 9.75995H7.69525C6.51882 9.75995 5.56512 8.80626 5.56512 7.62982ZM7.69525 6.91978C7.30311 6.91978 6.98521 7.23768 6.98521 7.62982C6.98521 8.02197 7.30311 8.33987 7.69525 8.33987H18.1092C18.5014 8.33987 18.8193 8.02197 18.8193 7.62982C18.8193 7.23768 18.5014 6.91978 18.1092 6.91978H7.69525Z" fill="#232323"/>
<path fill-rule="evenodd" clip-rule="evenodd" d="M9.3624 9.59791L6.15112 15.307C4.53594 18.1785 6.7085 21.6605 10.1153 21.6605H15.6854C19.0923 21.6605 21.2648 18.1785 19.6496 15.307L16.4384 9.59791L17.8375 8.87671L21.0488 14.5858C23.234 18.4708 20.2947 23.1817 15.6854 23.1817H10.1153C5.50608 23.1817 2.56673 18.4708 4.75198 14.5858L7.96327 8.87671L9.3624 9.59791Z" fill="#232323"/>
</svg>
