<svg width="24" height="24" viewBox="0 0 24 24" fill="none" xmlns="http://www.w3.org/2000/svg">
<g clip-path="url(#clip0_47_211)">
<path fill-rule="evenodd" clip-rule="evenodd" d="M17.915 3.24983C18.1139 3.24983 18.3046 3.32885 18.4453 3.4695L23.0301 8.0543C23.323 8.34719 23.323 8.82206 23.0301 9.11496C22.7372 9.40785 22.2623 9.40785 21.9694 9.11496L18.665 5.81049V19.9998C18.665 20.414 18.3292 20.7498 17.915 20.7498C17.5008 20.7498 17.165 20.414 17.165 19.9998V5.81049L13.8605 9.11496C13.5676 9.40785 13.0927 9.40785 12.7998 9.11496C12.5069 8.82206 12.5069 8.34719 12.7998 8.0543L17.3846 3.4695C17.5253 3.32885 17.7161 3.24983 17.915 3.24983Z" fill="#E84362"/>
<path fill-rule="evenodd" clip-rule="evenodd" d="M7.08498 20.7498C7.28389 20.7498 7.47466 20.6708 7.61531 20.5302L12.2001 15.9454C12.493 15.6525 12.493 15.1776 12.2001 14.8847C11.9072 14.5918 11.4323 14.5918 11.1394 14.8847L7.83498 18.1892V3.99983C7.83498 3.58562 7.49919 3.24983 7.08498 3.24983C6.67076 3.24983 6.33498 3.58562 6.33498 3.99983V18.1892L3.03051 14.8847C2.73762 14.5918 2.26275 14.5918 1.96985 14.8847C1.67696 15.1776 1.67696 15.6525 1.96985 15.9454L6.55465 20.5302C6.6953 20.6708 6.88607 20.7498 7.08498 20.7498Z" fill="#E84362"/>
</g>
<defs>
<clipPath id="clip0_47_211">
<rect width="24" height="24" fill="white"/>
</clipPath>
</defs>
</svg>
