<svg width="17" height="13" viewBox="0 0 17 13" fill="none" xmlns="http://www.w3.org/2000/svg">
<path fill-rule="evenodd" clip-rule="evenodd" d="M16.3496 6.50451C16.3496 6.71171 16.2673 6.91042 16.1208 7.05693L10.9125 12.2653C10.6074 12.5704 10.1127 12.5704 9.8076 12.2653C9.5025 11.9602 9.5025 11.4655 9.8076 11.1604L13.6823 7.28576L1.43146 7.28576C0.999983 7.28576 0.650206 6.93598 0.650206 6.50451C0.650206 6.07303 0.999983 5.72326 1.43146 5.72326L13.6823 5.72326L9.8076 1.8486C9.5025 1.5435 9.5025 1.04884 9.8076 0.743746C10.1127 0.438649 10.6074 0.438649 10.9125 0.743746L16.1208 5.95208C16.2673 6.09859 16.3496 6.29731 16.3496 6.50451Z" fill="#616161"/>
</svg>
