<svg width="24" height="24" viewBox="0 0 24 24" fill="none" xmlns="http://www.w3.org/2000/svg">
<path fill-rule="evenodd" clip-rule="evenodd" d="M7 6.25C6.75816 6.25 6.52888 6.26842 6.31145 6.3041C6.30415 6.3053 6.29684 6.30639 6.2895 6.30737C5.19556 6.4538 4.32635 6.95388 3.72467 7.70685C3.11906 8.46475 2.75 9.52358 2.75 10.8333C2.75 11.2475 2.41421 11.5833 2 11.5833C1.58579 11.5833 1.25 11.2475 1.25 10.8333C1.25 9.24175 1.70094 7.83658 2.55283 6.77048C3.40651 5.70213 4.6283 5.01896 6.07956 4.8221C6.37866 4.77366 6.6857 4.75 7 4.75H17C17.2705 4.75 17.5642 4.7604 17.8613 4.8114C19.3248 4.99743 20.5604 5.67626 21.4256 6.7456C22.2906 7.81478 22.75 9.22942 22.75 10.8333V16.1667C22.75 17.9231 22.199 19.4509 21.1722 20.5463C20.1412 21.646 18.6856 22.25 17 22.25H9.5C9.08579 22.25 8.75 21.9142 8.75 21.5C8.75 21.0858 9.08579 20.75 9.5 20.75H17C18.3144 20.75 19.3588 20.2873 20.0778 19.5204C20.801 18.7491 21.25 17.6102 21.25 16.1667V10.8333C21.25 9.51458 20.8744 8.44921 20.2594 7.68905C19.6483 6.93367 18.7659 6.43507 17.6577 6.29762C17.6446 6.296 17.6317 6.29404 17.6187 6.29174C17.4426 6.26043 17.2435 6.25 17 6.25H7Z" fill="#616161"/>
<path fill-rule="evenodd" clip-rule="evenodd" d="M9.78003 14.93C9.78003 13.7537 8.8264 12.8 7.65003 12.8C6.67534 12.8 5.85356 13.4547 5.60043 14.3483C5.4184 14.3166 5.23115 14.3 5.04003 14.3C4.69511 14.3 4.36277 14.3539 4.05099 14.4538C4.28423 12.6741 5.80667 11.3 7.65003 11.3C9.65482 11.3 11.28 12.9253 11.28 14.93C11.28 16.7734 9.90602 18.2959 8.1263 18.5291C8.22613 18.2173 8.28003 17.885 8.28003 17.54C8.28003 17.3489 8.26348 17.1617 8.23174 16.9796C9.12535 16.7265 9.78003 15.9047 9.78003 14.93Z" fill="#616161"/>
<path fill-rule="evenodd" clip-rule="evenodd" d="M4.77015 15.6801C5.94651 15.6801 6.90015 16.6337 6.90015 17.8101C6.90015 18.9864 5.94651 19.9401 4.77015 19.9401C3.59378 19.9401 2.64015 18.9864 2.64015 17.8101C2.64015 16.6337 3.59378 15.6801 4.77015 15.6801ZM8.40015 17.8101C8.40015 15.8053 6.77494 14.1801 4.77015 14.1801C2.76535 14.1801 1.14015 15.8053 1.14015 17.8101C1.14015 19.8148 2.76535 21.4401 4.77015 21.4401C6.77494 21.4401 8.40015 19.8148 8.40015 17.8101Z" fill="#616161"/>
<path fill-rule="evenodd" clip-rule="evenodd" d="M2.61129 7.06296C2.37353 4.91701 3.8201 2.91654 5.94664 2.68093L15.7912 1.59023C17.9177 1.35462 19.7671 2.98993 20.0049 5.13588L20.094 5.94048L18.6031 6.10565L18.514 5.30105C18.3579 3.89205 17.1756 2.94601 15.9563 3.0811L6.11182 4.17181C4.89253 4.3069 3.94606 5.48878 4.10216 6.89778L2.61129 7.06296Z" fill="#616161"/>
<path fill-rule="evenodd" clip-rule="evenodd" d="M15.25 13.5C15.25 11.9812 16.4812 10.75 18 10.75H21.1429C22.0305 10.75 22.75 11.4695 22.75 12.3571V14.6429C22.75 15.5305 22.0305 16.25 21.1429 16.25H18C16.4812 16.25 15.25 15.0188 15.25 13.5ZM16.75 13.5C16.75 14.1904 17.3096 14.75 18 14.75H21.1429C21.202 14.75 21.25 14.702 21.25 14.6429V12.3571C21.25 12.298 21.202 12.25 21.1429 12.25H18C17.3096 12.25 16.75 12.8096 16.75 13.5Z" fill="#616161"/>
</svg>
