<svg width="24" height="24" viewBox="0 0 24 24" fill="none" xmlns="http://www.w3.org/2000/svg">
<path fill-rule="evenodd" clip-rule="evenodd" d="M7 4.25C6.76057 4.25 6.53379 4.26937 6.31883 4.30685C6.3111 4.3082 6.30336 4.30942 6.2956 4.31053C4.20321 4.60811 2.75 6.36115 2.75 9.16667V14.8333C2.75 16.3889 3.20645 17.6171 3.93738 18.4455C4.66082 19.2653 5.7009 19.75 7 19.75H17C18.2991 19.75 19.3392 19.2653 20.0626 18.4455C20.7935 17.6171 21.25 16.3889 21.25 14.8333V9.16667C21.25 6.34222 19.7714 4.57953 17.652 4.30022C17.6382 4.29841 17.6245 4.2962 17.6108 4.29362C17.4384 4.26106 17.2424 4.25 17 4.25H7ZM6.07284 2.82712C6.3742 2.7753 6.68351 2.75 7 2.75H17C17.2713 2.75 17.5676 2.76105 17.868 2.81575C20.8967 3.22506 22.75 5.78788 22.75 9.16667V14.8333C22.75 16.6777 22.2065 18.2829 21.1874 19.4379C20.1608 20.6013 18.7009 21.25 17 21.25H7C5.2991 21.25 3.83918 20.6013 2.81262 19.4379C1.79355 18.2829 1.25 16.6777 1.25 14.8333V9.16667C1.25 5.81115 3.07211 3.25976 6.07284 2.82712Z" fill="#232323"/>
<path fill-rule="evenodd" clip-rule="evenodd" d="M15.25 11.5C15.25 9.98122 16.4812 8.75 18 8.75H21.1429C22.0305 8.75 22.75 9.46954 22.75 10.3571V12.6429C22.75 13.5305 22.0305 14.25 21.1429 14.25H18C16.4812 14.25 15.25 13.0188 15.25 11.5ZM16.75 11.5C16.75 12.1904 17.3096 12.75 18 12.75H21.1429C21.202 12.75 21.25 12.702 21.25 12.6429V10.3571C21.25 10.298 21.202 10.25 21.1429 10.25H18C17.3096 10.25 16.75 10.8096 16.75 11.5Z" fill="#232323"/>
</svg>
