<svg width="25" height="24" viewBox="0 0 25 24" fill="none" xmlns="http://www.w3.org/2000/svg">
<path fill-rule="evenodd" clip-rule="evenodd" d="M7.5 6.16892C7.26057 6.16892 7.03379 6.18724 6.81883 6.2227C6.8111 6.22397 6.80336 6.22513 6.7956 6.22617C4.70321 6.50767 3.25 8.16596 3.25 10.8198V16.1802C3.25 17.6517 3.70645 18.8134 4.43738 19.597C5.16082 20.3726 6.2009 20.8311 7.5 20.8311H17.5C18.7991 20.8311 19.8392 20.3726 20.5626 19.597C21.2935 18.8134 21.75 17.6517 21.75 16.1802V10.8198C21.75 8.14805 20.2714 6.48064 18.152 6.21643C18.1382 6.21471 18.1245 6.21263 18.1108 6.21018C17.9384 6.17938 17.7424 6.16892 17.5 6.16892H7.5ZM6.57284 4.82296C6.8742 4.77393 7.18351 4.75 7.5 4.75H17.5C17.7713 4.75 18.0676 4.76046 18.368 4.8122C21.3967 5.19938 23.25 7.62367 23.25 10.8198V16.1802C23.25 17.9249 22.7065 19.4433 21.6874 20.5358C20.6608 21.6364 19.2009 22.25 17.5 22.25H7.5C5.7991 22.25 4.33918 21.6364 3.31262 20.5358C2.29355 19.4433 1.75 17.9249 1.75 16.1802V10.8198C1.75 7.64568 3.57211 5.23221 6.57284 4.82296Z" fill="#616161"/>
<path fill-rule="evenodd" clip-rule="evenodd" d="M3.11116 7.06287C2.87341 4.91692 4.31998 2.91644 6.44652 2.68084L16.291 1.59013C18.4176 1.35453 20.267 2.98983 20.5047 5.13578L20.5939 5.94038L19.103 6.10556L19.0139 5.30096C18.8577 3.89196 17.6755 2.94592 16.4562 3.08101L6.6117 4.17172C5.39241 4.30681 4.44593 5.48869 4.60204 6.89769L3.11116 7.06287Z" fill="#616161"/>
<path fill-rule="evenodd" clip-rule="evenodd" d="M15.75 13.5C15.75 11.9812 16.9812 10.75 18.5 10.75H21.6429C22.5305 10.75 23.25 11.4695 23.25 12.3571V14.6428C23.25 15.5304 22.5305 16.25 21.6429 16.25H18.5C16.9812 16.25 15.75 15.0188 15.75 13.5ZM17.25 13.5C17.25 14.1903 17.8096 14.75 18.5 14.75H21.6429C21.702 14.75 21.75 14.702 21.75 14.6428V12.3571C21.75 12.2979 21.702 12.25 21.6429 12.25H18.5C17.8096 12.25 17.25 12.8096 17.25 13.5Z" fill="#616161"/>
</svg>
